<?xml version="1.0" standalone="no"?>
<!DOCTYPE svg PUBLIC "-//W3C//DTD SVG 20010904//EN"
 "http://www.w3.org/TR/2001/REC-SVG-20010904/DTD/svg10.dtd">
<svg version="1.0" xmlns="http://www.w3.org/2000/svg"
 width="512.000000pt" height="177.000000pt" viewBox="0 0 512.000000 177.000000"
 preserveAspectRatio="xMidYMid meet">

<g transform="translate(0.000000,177.000000) scale(0.100000,-0.100000)"
fill="#000000" stroke="none">
<path d="M610 1522 c-289 -46 -527 -86 -529 -88 -2 -2 -20 -86 -41 -188 l-37
-184 85 -518 c47 -286 86 -521 88 -523 4 -4 1056 158 1062 164 1 1 11 51 23
111 11 60 23 116 27 125 6 13 84 -19 481 -198 260 -118 477 -211 482 -206 6 6
316 706 344 778 7 18 8 17 15 -10 5 -16 32 -197 61 -400 l52 -371 511 72 c281
40 522 74 536 76 18 2 25 9 24 23 -1 11 -34 245 -73 519 -40 275 -70 507 -68
516 4 15 0 16 -22 8 -14 -5 -234 -37 -489 -72 -255 -35 -465 -66 -468 -69 -3
-3 0 -24 6 -47 6 -23 9 -44 7 -46 -2 -2 -33 9 -68 25 -35 16 -250 113 -478
215 -227 103 -415 185 -417 183 -2 -1 -50 -109 -107 -238 -108 -243 -274 -618
-300 -679 l-16 -35 5 55 c3 34 -4 117 -21 220 -14 91 -48 314 -75 495 -54 360
-57 376 -68 374 -4 -1 -243 -40 -532 -87z m1506 -288 c512 -231 504 -227 504
-233 0 -3 -54 -4 -121 -3 -99 3 -120 1 -115 -10 4 -7 -1 -2 -10 12 -42 59
-129 134 -192 163 -62 29 -75 32 -172 32 -101 0 -108 -1 -184 -38 -57 -27 -96
-55 -140 -100 -57 -58 -63 -62 -98 -57 l-37 5 70 160 c39 88 79 179 90 203 10
24 23 41 27 38 5 -3 175 -80 378 -172z m15 -64 c79 -27 123 -56 182 -119 91
-97 132 -238 109 -373 -26 -155 -134 -314 -259 -381 -250 -133 -553 11 -612
291 -33 156 20 328 140 456 121 130 286 177 440 126z m1298 -74 c30 -32 33
-43 92 -461 47 -324 52 -374 41 -401 -25 -60 -104 -73 -145 -24 -28 33 -30 38
-52 195 -9 61 -18 119 -20 131 l-5 21 -144 -21 c-80 -12 -148 -24 -151 -28 -3
-3 3 -65 15 -138 11 -73 20 -150 20 -172 0 -51 -35 -88 -84 -88 -48 0 -65 8
-82 42 -16 31 -124 729 -124 802 0 37 5 48 31 70 57 48 124 26 148 -49 5 -17
17 -88 27 -160 9 -71 18 -131 20 -133 1 -2 70 7 153 19 142 21 150 23 146 43
-12 55 -35 242 -35 282 0 34 6 51 25 69 33 34 93 34 124 1z m-2610 -15 c26
-26 34 -76 29 -169 -6 -100 -32 -155 -153 -319 -93 -126 -155 -228 -155 -255
0 -11 35 -8 180 17 l181 30 36 -20 c69 -38 64 -112 -10 -145 -23 -10 -145 -36
-270 -57 -209 -34 -231 -36 -255 -22 -39 21 -55 63 -54 138 1 118 50 221 189
398 98 125 121 162 129 201 6 29 4 32 -18 32 -13 0 -73 -9 -133 -20 -60 -11
-132 -20 -161 -20 -45 0 -56 4 -73 26 -41 52 -19 115 47 134 66 20 355 68 415
69 44 1 61 -3 76 -18z m787 -123 c-9 -12 -16 -19 -16 -15 0 11 24 47 28 42 2
-2 -3 -14 -12 -27z m1043 9 c8 -10 7 -14 -2 -14 -8 0 -14 6 -14 14 0 7 1 13 2
13 2 0 8 -6 14 -13z"/>
<path d="M1923 989 c-149 -74 -235 -340 -150 -467 36 -56 110 -93 183 -93 101
0 173 56 232 179 31 65 37 88 40 161 2 68 -1 93 -15 121 -10 19 -22 34 -26 32
-4 -2 -19 6 -34 17 -14 12 -30 18 -36 14 -6 -3 -7 -1 -3 6 8 12 19 8 49 -17 9
-8 17 -11 17 -6 -1 14 -46 43 -91 59 -58 21 -117 19 -166 -6z m132 1 c4 -6 11
-8 16 -5 5 4 16 2 25 -3 11 -6 13 -11 5 -16 -6 -4 -11 -2 -11 3 0 6 -4 11 -9
11 -6 0 -8 -9 -6 -20 2 -12 0 -18 -6 -15 -5 4 -7 10 -4 15 8 13 -17 28 -55 33
l-35 4 37 1 c20 1 40 -3 43 -8z m-105 -27 c0 -2 -6 -3 -12 -2 -25 3 -39 -1
-34 -9 3 -5 -2 -9 -11 -9 -13 0 -11 4 6 18 19 15 51 17 51 2z m47 -2 c0 -11
-5 -18 -9 -15 -4 3 -5 11 -1 19 7 21 12 19 10 -4z m49 -7 c1 -9 0 -13 -4 -10
-3 4 -7 14 -8 22 -1 9 0 13 4 10 3 -4 7 -14 8 -22z m-186 -38 c0 -2 -8 -10
-17 -17 -16 -13 -17 -12 -4 4 13 16 21 21 21 13z"/>
<path d="M3725 1448 c-2 -7 0 -29 5 -48 8 -34 8 -34 7 12 -2 50 -5 57 -12 36z"/>
<path d="M3686 1334 c-14 -43 -24 -79 -22 -81 2 -2 16 31 30 73 14 43 24 79
22 81 -2 2 -16 -31 -30 -73z"/>
<path d="M5071 1327 c-25 -28 -32 -41 -17 -27 26 23 71 80 64 80 -2 0 -23 -24
-47 -53z"/>
<path d="M3742 1325 c0 -16 2 -22 5 -12 2 9 2 23 0 30 -3 6 -5 -1 -5 -18z"/>
<path d="M3752 1250 c0 -19 2 -27 5 -17 2 9 2 25 0 35 -3 9 -5 1 -5 -18z"/>
<path d="M4990 1235 c-18 -19 -32 -36 -29 -38 2 -2 19 14 38 35 42 48 36 50
-9 3z"/>
<path d="M3762 1175 c0 -16 2 -22 5 -12 2 9 2 23 0 30 -3 6 -5 -1 -5 -18z"/>
<path d="M3772 1100 c0 -14 2 -19 5 -12 2 6 2 18 0 25 -3 6 -5 1 -5 -13z"/>
<path d="M3782 1015 c0 -16 2 -22 5 -12 2 9 2 23 0 30 -3 6 -5 -1 -5 -18z"/>
<path d="M3792 940 c0 -19 2 -27 5 -17 2 9 2 25 0 35 -3 9 -5 1 -5 -18z"/>
<path d="M3802 860 c0 -19 2 -27 5 -17 2 9 2 25 0 35 -3 9 -5 1 -5 -18z"/>
<path d="M3812 800 c0 -14 6 -63 13 -110 l14 -85 -6 70 c-6 78 -20 165 -21
125z"/>
<path d="M3843 565 c0 -22 2 -30 4 -17 2 12 2 30 0 40 -3 9 -5 -1 -4 -23z"/>
<path d="M3852 490 c0 -19 2 -27 5 -17 2 9 2 25 0 35 -3 9 -5 1 -5 -18z"/>
<path d="M3859 405 c-4 -27 -9 -59 -13 -70 -3 -11 1 -5 9 14 9 18 15 50 13 70
-3 33 -4 32 -9 -14z"/>
<path d="M3816 264 c-9 -26 -14 -49 -12 -51 2 -2 11 17 20 43 9 26 14 49 12
51 -2 2 -11 -17 -20 -43z"/>
</g>
</svg>
